<svg width="320" height="519" viewBox="0 0 320 519" fill="none" xmlns="http://www.w3.org/2000/svg">
<path d="M45.957 104.405C70.6261 81.7254 106.357 48.8789 125.153 31.5757C144.046 14.1749 159.807 0 160.198 0C160.59 0 178.7 16.4233 200.432 36.3659C222.164 56.4062 257.798 89.3505 279.726 109.489C306.94 134.515 319.568 146.734 319.372 147.81C319.176 148.787 315.065 153.871 310.268 159.247C305.471 164.624 300.675 169.023 299.794 169.023C298.815 169.121 276.299 149.081 248.4 123.468C220.99 98.3443 190.153 69.9945 179.875 60.4143C169.498 50.834 160.688 43.0134 160.296 43.0134C159.807 43.0134 132.69 67.6483 99.7982 97.8555C66.9062 128.063 35.7762 156.706 30.4899 161.398C24.029 167.361 20.6027 169.903 19.6238 169.414C18.8407 168.925 14.2397 164.233 9.24716 158.856C4.05882 153.186 0.436783 148.396 0.632569 147.419C0.828355 146.539 21.1901 127.183 45.957 104.405Z" fill="#D02D2D"/>
<path d="M48.698 175.866C52.5159 172.347 79.0449 147.81 107.63 121.317C136.117 94.9227 159.807 73.3183 160.198 73.3183C160.59 73.3183 177.623 88.764 197.985 107.729C218.249 126.596 244.974 151.329 257.21 162.669C274.929 179.092 279.628 183.98 280.411 186.717C280.9 188.575 281.39 204.9 281.488 222.888C281.586 244.688 281.292 258.374 280.509 263.946C279.824 268.54 278.845 273.037 278.355 274.015C277.866 274.895 277.67 276.068 277.964 276.654C278.257 277.241 278.159 277.632 277.768 277.632C277.278 277.632 276.985 267.856 276.985 255.93C276.985 239.311 276.593 233.445 275.614 231.197C274.831 229.633 274.341 227.678 274.341 227.091C274.439 226.407 274.146 225.82 273.558 225.82C272.971 225.82 272.775 225.429 273.069 224.843C273.363 224.256 272.775 221.91 271.894 219.466C270.915 217.022 269.741 215.36 269.349 215.751C268.859 216.142 268.762 215.849 269.153 215.067C269.545 214.285 268.272 210.57 266.412 206.758C264.454 203.043 260.636 196.591 257.798 192.583C254.959 188.575 248.204 180.852 242.722 175.475C237.24 170.098 229.702 163.646 225.982 161.202C222.262 158.661 216.389 155.239 212.865 153.48C209.34 151.72 202.096 148.885 196.712 147.028C191.328 145.268 182.714 143.117 177.623 142.237C172.533 141.455 164.603 140.771 160.002 140.771C155.401 140.771 147.472 141.455 142.382 142.237C137.291 143.117 128.285 145.463 122.314 147.419C116.342 149.472 107.825 153.186 103.224 155.63C98.6235 158.172 91.2815 163.06 86.8763 166.579C82.3733 170.098 78.947 173.324 79.1428 173.813C79.4365 174.204 78.3596 175.28 76.6955 176.257C75.1292 177.137 71.1156 181.341 67.8851 185.544C64.5567 189.65 60.4452 195.32 58.781 197.959C57.019 200.697 53.9843 206.562 51.9285 211.157C49.7749 215.751 48.1107 220.639 48.0128 222.106C47.9149 223.474 47.5233 224.354 46.936 224.061C46.3486 223.67 46.2507 224.061 46.7402 225.136C47.1318 226.016 47.0339 226.798 46.4465 226.798C45.8591 226.798 45.6634 227.384 45.8591 228.069C46.1528 228.655 45.957 229.731 45.4676 230.219C44.8802 230.806 43.9013 234.912 43.0203 239.506C41.9434 246.056 41.8455 248.109 42.8245 249.087C43.7055 250.064 43.7055 250.553 42.7266 251.531C42.0413 252.215 41.5519 253.877 41.5519 255.441C41.5519 257.103 42.335 258.667 43.8034 259.547C45.5655 260.818 49.5791 261.013 89.5194 260.524V265.705C89.5194 268.443 90.2047 272.157 90.9878 273.722C91.771 275.286 92.2604 277.143 91.9668 277.632C91.6731 278.218 92.7499 281.835 94.4141 285.746C95.9804 289.558 99.4066 295.815 102.05 299.627C104.693 303.44 108.511 308.132 110.664 310.283C112.72 312.336 116.929 315.66 119.866 317.713C122.803 319.765 127.698 322.503 130.635 323.774C133.571 325.142 138.662 327 141.892 327.977C146.102 329.346 151.094 329.835 159.513 329.835C169.4 329.932 172.533 329.541 179.287 327.488C183.79 326.12 187.608 325.338 187.902 325.826C188.196 326.217 187.51 328.173 186.434 330.226C185.455 332.181 184.574 333.452 184.574 332.865C184.476 332.278 180.756 338.633 176.155 346.844C171.162 355.643 168.128 362.192 168.519 362.974C169.041 363.756 168.878 363.919 168.03 363.463C167.247 362.877 164.897 365.907 160.786 372.75C157.457 378.225 153.737 385.165 152.563 388.098C151.388 391.031 149.724 396.994 148.843 401.295C147.766 406.379 147.57 409.409 148.255 410.094C148.843 410.778 148.745 411.462 147.962 412.342C147.178 413.189 146.852 416.774 146.983 423.095C146.983 428.277 147.766 436.781 148.647 441.865C149.528 446.948 151.388 455.16 152.758 459.95C154.129 464.838 155.597 469.237 156.087 469.726C156.576 470.312 156.772 471.29 156.478 471.974C156.282 472.561 156.478 473.147 157.066 473.147C157.653 473.147 157.751 473.929 157.359 474.907C156.772 476.178 156.87 476.373 158.045 475.591C159.219 474.809 159.317 474.907 158.632 476.08C158.142 476.96 157.555 477.155 157.164 476.569C156.772 476.08 152.269 470.312 147.178 463.86C142.186 457.408 137.683 451.738 137.291 451.152C136.802 450.663 132.69 444.895 127.991 438.443C123.293 431.991 113.993 418.599 107.336 408.627C100.679 398.656 91.5752 384.383 87.0721 376.856C82.6669 369.329 75.8144 357.207 71.8987 349.973C67.983 342.739 63.2841 333.452 61.4241 329.444C59.5642 325.435 56.1379 317.517 53.7885 311.847C51.5369 306.177 48.2086 297.183 46.4465 291.807C44.6844 286.43 42.9224 281.64 42.4329 281.053C42.0413 280.565 41.8455 279.685 42.1392 279.098C42.4329 278.609 42.1392 276.166 41.454 273.722C40.8666 271.278 39.9856 259.84 39.4961 248.305C39.1045 236.769 38.713 226.602 38.713 225.82C38.6151 225.038 38.9087 216.045 39.2024 205.78C39.4961 195.613 40.0835 186.131 40.6708 184.762C41.1603 183.393 44.7823 179.385 48.698 175.866Z" fill="#D02D2D"/>
<g filter="url(#filter0_d_1910_1428)">
<path d="M122.314 147.417C128.286 145.364 136.803 143.116 141.404 142.334C146.005 141.551 153.934 140.965 159.024 140.867C164.115 140.867 172.534 141.454 177.624 142.236C182.714 143.116 191.329 145.266 196.713 147.026C202.097 148.883 209.341 151.718 212.866 153.478C216.39 155.238 222.263 158.659 225.983 161.201C229.703 163.645 237.241 170.097 242.723 175.473C248.205 180.85 254.96 188.573 257.798 192.581C260.637 196.589 264.455 203.041 266.413 206.756C268.273 210.568 269.546 214.283 269.154 215.065C268.762 215.847 268.86 216.141 269.35 215.75C269.741 215.359 270.916 217.02 271.797 219.464C272.776 221.908 273.363 224.255 273.07 224.841C272.776 225.428 272.972 225.819 273.559 225.819C274.147 225.819 274.44 226.405 274.342 227.089C274.342 227.676 274.832 229.631 275.615 231.195C276.692 233.444 276.985 239.7 276.888 283.007L273.168 294.249C271.112 300.408 267.49 310.086 265.043 315.756C262.693 321.426 257.798 331.788 254.274 338.729C250.75 345.67 244.877 356.716 241.255 363.168C237.632 369.62 231.172 380.374 227.06 387.119C222.851 393.864 215.9 404.617 211.593 411.069C207.286 417.521 199.063 429.155 193.483 436.975C187.903 444.796 182.812 452.03 182.225 453.105C181.638 454.181 176.939 460.633 171.555 467.573C166.268 474.417 161.667 479.989 161.276 479.989C160.786 480.086 159.905 479.402 159.318 478.522C158.633 477.74 158.339 476.469 158.731 475.883C159.318 474.905 159.122 474.905 158.045 475.59C156.871 476.372 156.773 476.176 157.36 474.905C157.752 473.928 157.654 473.146 157.067 473.146C156.479 473.146 156.283 472.559 156.479 471.973C156.773 471.288 156.577 470.311 156.088 469.724C155.598 469.138 154.13 464.738 152.759 459.948C151.389 455.158 149.529 446.947 148.648 441.863C147.767 436.78 146.984 428.275 146.984 423.094C146.853 416.772 147.179 413.188 147.962 412.34C148.746 411.461 148.843 410.776 148.256 410.092C147.571 409.408 147.767 406.377 148.843 401.294C149.725 396.992 151.389 391.029 152.563 388.096C153.738 385.164 157.458 378.223 160.786 372.748C164.898 365.905 167.247 362.875 168.031 363.461C168.879 363.918 169.042 363.755 168.52 362.973C168.128 362.191 171.163 355.641 176.156 346.843C180.757 338.631 184.477 332.277 184.574 332.863C184.574 333.45 185.455 332.179 186.434 330.224C187.511 328.171 188.196 326.216 187.903 325.825C187.609 325.336 190.84 323.088 195.049 320.741C199.65 318.102 205.426 313.605 210.027 309.01C214.138 304.905 219.229 298.55 221.48 294.738C223.634 290.925 226.668 283.887 228.039 279.097C229.801 273.133 230.584 267.659 230.78 261.989C230.878 257.394 230.193 249.965 229.312 245.37C228.431 240.776 226.277 233.737 224.417 229.729C222.263 224.939 218.641 219.66 214.236 214.576C210.418 210.275 204.936 205.192 201.999 203.237C199.063 201.281 194.07 198.153 190.84 196.198C187.609 194.243 181.442 191.799 177.135 190.626C171.946 189.355 166.268 188.671 160.493 188.671C155.696 188.671 148.55 189.355 144.83 190.137C141.11 191.017 135.824 192.777 133.083 194.145C130.44 195.514 124.272 199.229 119.476 202.259C113.406 206.072 109.197 209.591 105.966 213.599C103.323 216.825 99.5054 222.788 97.4497 226.796C95.296 230.804 92.9466 236.572 92.0655 239.505C91.1845 242.437 90.4992 247.619 90.4992 251.04C90.4992 255.83 90.1077 257.492 88.5414 259.056C86.6814 260.914 85.3109 261.011 66.3197 261.011C49.7757 261.011 45.5663 260.718 43.8043 259.545C42.3359 258.665 41.5527 257.101 41.5527 255.439C41.5527 253.875 42.0422 252.213 42.7275 251.529C43.7064 250.551 43.7064 250.063 42.8253 249.085C41.8464 248.107 41.9443 246.054 43.0211 239.505C43.9022 234.91 44.8811 230.804 45.4685 230.218C45.9579 229.631 46.1537 228.654 45.86 228.067C45.6642 227.383 45.86 226.796 46.4474 226.796C47.0347 226.796 47.1326 226.014 46.7411 225.134C46.2516 224.059 46.3495 223.668 46.9369 224.059C47.5242 224.352 47.9158 223.472 48.0137 222.104C48.1116 220.637 49.7757 215.75 51.9294 211.155C53.9851 206.56 57.0198 200.695 58.7819 197.958C60.4461 195.318 64.5576 189.648 67.886 185.542C71.1164 181.339 75.13 177.135 76.6963 176.255C78.3605 175.278 79.4373 174.203 79.1437 173.812C78.9479 173.323 82.3741 170.097 86.7793 166.577C91.2824 163.058 98.6244 158.17 103.225 155.629C107.826 153.185 116.343 149.47 122.314 147.417Z" fill="#E25252"/>
</g>
<defs>
<filter id="filter0_d_1910_1428" x="3.55273" y="111.867" width="303.352" height="407.131" filterUnits="userSpaceOnUse" color-interpolation-filters="sRGB">
<feFlood flood-opacity="0" result="BackgroundImageFix"/>
<feColorMatrix in="SourceAlpha" type="matrix" values="0 0 0 0 0 0 0 0 0 0 0 0 0 0 0 0 0 0 127 0" result="hardAlpha"/>
<feOffset dx="-4" dy="5"/>
<feGaussianBlur stdDeviation="17"/>
<feComposite in2="hardAlpha" operator="out"/>
<feColorMatrix type="matrix" values="0 0 0 0 0 0 0 0 0 0 0 0 0 0 0 0 0 0 0.61 0"/>
<feBlend mode="normal" in2="BackgroundImageFix" result="effect1_dropShadow_1910_1428"/>
<feBlend mode="normal" in="SourceGraphic" in2="effect1_dropShadow_1910_1428" result="shape"/>
</filter>
</defs>
</svg>
